<svg xmlns="http://www.w3.org/2000/svg" viewBox="0 0 100 120" width="200" height="240">
<g fill="#221d18" stroke="#b6892f" stroke-width="2.5" stroke-linejoin="round">
<path d="M24 112 L76 112 L68 98 L32 98 Z"></path><path d="M32 98 Q26 72 50 52 Q74 72 68 98 Z"></path>
<rect x="24" y="44" width="52" height="13" rx="2"></rect>
<polygon points="26,44 34,44 30,30"></polygon><polygon points="40,44 48,44 44,24"></polygon><polygon points="46,44 54,44 50,18"></polygon><polygon points="52,44 60,44 56,24"></polygon><polygon points="66,44 74,44 70,30"></polygon>
<circle cx="50" cy="14" r="6"></circle><polygon points="50,4 53,12 47,12" fill="#b6892f"></polygon><polygon points="40,14 48,11 48,17" fill="#b6892f"></polygon><polygon points="60,14 52,11 52,17" fill="#b6892f"></polygon></g>
</svg>