<svg xmlns="http://www.w3.org/2000/svg" viewBox="0 0 100 120" width="200" height="240">
<g fill="#221d18" stroke="#b6892f" stroke-width="2.5" stroke-linejoin="round">
<path d="M28 112 L72 112 L66 100 L34 100 Z"></path>
<path d="M34 100 Q30 80 38 68 L34 60 Q40 46 54 40 Q50 34 56 30 Q66 28 70 38 Q78 44 76 56 Q82 62 78 70 Q80 80 70 82 L64 78 Q58 84 60 92 L64 100 Z"></path>
<polygon points="56,30 62,20 66,28" fill="#b6892f"></polygon><circle cx="66" cy="46" r="2.5" fill="#b6892f"></circle>
<path d="M40 66 L46 72 L42 76 L48 82 L44 86" stroke-width="1.8" fill="none"></path>
<rect x="36" y="80" width="14" height="6" fill="#b6892f" stroke="none"></rect><rect x="34" y="90" width="16" height="6" fill="#b6892f" stroke="none"></rect></g>
</svg>