<svg xmlns="http://www.w3.org/2000/svg" viewBox="0 0 100 120" width="200" height="240">
<g fill="#ece1c4" stroke="#4a3520" stroke-width="2.5" stroke-linejoin="round">
<path d="M28 112 L72 112 L66 100 L34 100 Z"></path>
<path d="M34 100 Q30 80 38 68 L34 60 Q40 46 54 40 Q50 34 56 30 Q66 28 70 38 Q78 44 76 56 Q82 62 78 70 Q80 80 70 82 L64 78 Q58 84 60 92 L64 100 Z"></path>
<path d="M56 30 Q60 22 66 24 Q64 30 60 32 Z"></path><circle cx="66" cy="46" r="2.5" fill="#4a3520"></circle>
<path d="M40 68 Q50 62 60 66" stroke-width="1.8" fill="none"></path></g>
</svg>