<svg xmlns="http://www.w3.org/2000/svg" viewBox="0 0 100 140" width="300" height="420">
<defs>
<linearGradient id="marble" x1="0" y1="0" x2="0" y2="1"><stop offset="0" stop-color="#fbf8f1"></stop><stop offset="1" stop-color="#d6cdb8"></stop></linearGradient>
<linearGradient id="gold" x1="0" y1="0" x2="0" y2="1"><stop offset="0" stop-color="#f3d576"></stop><stop offset="1" stop-color="#a9781f"></stop></linearGradient>
<linearGradient id="granite" x1="0" y1="0" x2="0" y2="1"><stop offset="0" stop-color="#5c5f66"></stop><stop offset="1" stop-color="#26282c"></stop></linearGradient>
<linearGradient id="steel" x1="0" y1="0" x2="0" y2="1"><stop offset="0" stop-color="#c9d3db"></stop><stop offset="1" stop-color="#828c98"></stop></linearGradient>
<symbol id="cross" viewBox="-10 -14 20 28"><path d="M-4 -14 L4 -14 L4 -4 L10 -4 L10 4 L4 4 L4 14 L-4 14 L-4 4 L-10 4 L-10 -4 L-4 -4 Z"></path></symbol>
<symbol id="greekCross" viewBox="-10 -10 20 20"><path d="M-3 -10 L3 -10 L3 -3 L10 -3 L10 3 L3 3 L3 10 L-3 10 L-3 3 L-10 3 L-10 -3 L-3 -3 Z"></path></symbol>
</defs>
<g stroke="#101114" stroke-width="2" stroke-linejoin="round">
  <path d="M22 132 L78 132 L70 116 L30 116 Z" fill="url(#granite)"></path>
  <path d="M30 116 Q26 88 50 62 Q74 88 70 116 Z" fill="url(#granite)"></path>
  <rect x="40" y="80" width="20" height="36" fill="#8a1f1f" stroke="none"></rect>
  <path d="M50 84 L50 112 M38 98 L62 98" stroke="#c9c9cc" stroke-width="3"></path>
  <path d="M32 62 Q30 40 50 34 Q70 40 68 62 Z" fill="url(#steel)"></path>
  <rect x="29" y="58" width="42" height="8" rx="2" fill="url(#steel)"></rect>
  <rect x="46" y="40" width="8" height="24" fill="#26282c" stroke="none"></rect>
  <rect x="34" y="47" width="32" height="6" fill="#26282c" stroke="none"></rect>
  <use href="#cross" x="42" y="14" width="16" height="20" fill="url(#steel)"></use>
</g>
</svg>