<svg xmlns="http://www.w3.org/2000/svg" viewBox="0 0 100 140" width="300" height="420">
<defs>
<linearGradient id="marble" x1="0" y1="0" x2="0" y2="1"><stop offset="0" stop-color="#fbf8f1"></stop><stop offset="1" stop-color="#d6cdb8"></stop></linearGradient>
<linearGradient id="gold" x1="0" y1="0" x2="0" y2="1"><stop offset="0" stop-color="#f3d576"></stop><stop offset="1" stop-color="#a9781f"></stop></linearGradient>
<linearGradient id="granite" x1="0" y1="0" x2="0" y2="1"><stop offset="0" stop-color="#5c5f66"></stop><stop offset="1" stop-color="#26282c"></stop></linearGradient>
<linearGradient id="steel" x1="0" y1="0" x2="0" y2="1"><stop offset="0" stop-color="#c9d3db"></stop><stop offset="1" stop-color="#828c98"></stop></linearGradient>
<symbol id="cross" viewBox="-10 -14 20 28"><path d="M-4 -14 L4 -14 L4 -4 L10 -4 L10 4 L4 4 L4 14 L-4 14 L-4 4 L-10 4 L-10 -4 L-4 -4 Z"></path></symbol>
<symbol id="greekCross" viewBox="-10 -10 20 20"><path d="M-3 -10 L3 -10 L3 -3 L10 -3 L10 3 L3 3 L3 10 L-3 10 L-3 3 L-10 3 L-10 -3 L-3 -3 Z"></path></symbol>
</defs>
<g stroke="#101114" stroke-width="2" stroke-linejoin="round">
  <path d="M28 132 L72 132 L66 118 L34 118 Z" fill="url(#granite)"></path>
  <path d="M34 118 Q30 96 38 82 L34 72 Q40 56 54 50 Q50 44 56 40 Q66 38 70 48 Q78 54 76 68 Q82 74 78 82 Q80 94 70 96 L64 92 Q58 98 60 108 L64 118 Z" fill="url(#granite)"></path>
  <path d="M52 40 Q58 30 66 34 Q60 34 56 42 Z" fill="url(#steel)" stroke="none"></path>
  <circle cx="66" cy="56" r="2.5" fill="url(#steel)"></circle>
  <path d="M40 84 L52 84 L48 94 L38 94 Z" fill="#8a1f1f" stroke="none"></path>
  <path d="M42 98 L50 98 L46 108 L38 108 Z" fill="#8a1f1f" stroke="none"></path>
</g>
</svg>