<svg xmlns="http://www.w3.org/2000/svg" viewBox="0 0 100 140" width="300" height="420">
<defs>
<linearGradient id="marble" x1="0" y1="0" x2="0" y2="1"><stop offset="0" stop-color="#fbf8f1"></stop><stop offset="1" stop-color="#d6cdb8"></stop></linearGradient>
<linearGradient id="gold" x1="0" y1="0" x2="0" y2="1"><stop offset="0" stop-color="#f3d576"></stop><stop offset="1" stop-color="#a9781f"></stop></linearGradient>
<linearGradient id="granite" x1="0" y1="0" x2="0" y2="1"><stop offset="0" stop-color="#5c5f66"></stop><stop offset="1" stop-color="#26282c"></stop></linearGradient>
<linearGradient id="steel" x1="0" y1="0" x2="0" y2="1"><stop offset="0" stop-color="#c9d3db"></stop><stop offset="1" stop-color="#828c98"></stop></linearGradient>
<symbol id="cross" viewBox="-10 -14 20 28"><path d="M-4 -14 L4 -14 L4 -4 L10 -4 L10 4 L4 4 L4 14 L-4 14 L-4 4 L-10 4 L-10 -4 L-4 -4 Z"></path></symbol>
<symbol id="greekCross" viewBox="-10 -10 20 20"><path d="M-3 -10 L3 -10 L3 -3 L10 -3 L10 3 L3 3 L3 10 L-3 10 L-3 3 L-10 3 L-10 -3 L-3 -3 Z"></path></symbol>
</defs>
<g stroke="#101114" stroke-width="2" stroke-linejoin="round">
  <path d="M32 132 L68 132 L61 119 L39 119 Z" fill="url(#granite)"></path>
  <path d="M38 119 Q34 104 40 92 L60 92 Q66 104 62 119 Z" fill="url(#granite)"></path>
  <path d="M36 92 L64 92 L60 100 L40 100 Z" fill="#8a1f1f" stroke="none"></path>
  <circle cx="50" cy="66" r="12" fill="url(#granite)"></circle>
  <path d="M40 62 L60 62" stroke="url(#steel)" stroke-width="3"></path>
  <rect x="46" y="46" width="8" height="8" rx="2" fill="url(#steel)" stroke="none"></rect>
</g>
</svg>