<svg xmlns="http://www.w3.org/2000/svg" viewBox="0 0 100 140" width="300" height="420">
<defs>
<linearGradient id="marble" x1="0" y1="0" x2="0" y2="1"><stop offset="0" stop-color="#fbf8f1"></stop><stop offset="1" stop-color="#d6cdb8"></stop></linearGradient>
<linearGradient id="gold" x1="0" y1="0" x2="0" y2="1"><stop offset="0" stop-color="#f3d576"></stop><stop offset="1" stop-color="#a9781f"></stop></linearGradient>
<linearGradient id="granite" x1="0" y1="0" x2="0" y2="1"><stop offset="0" stop-color="#5c5f66"></stop><stop offset="1" stop-color="#26282c"></stop></linearGradient>
<linearGradient id="steel" x1="0" y1="0" x2="0" y2="1"><stop offset="0" stop-color="#c9d3db"></stop><stop offset="1" stop-color="#828c98"></stop></linearGradient>
<symbol id="cross" viewBox="-10 -14 20 28"><path d="M-4 -14 L4 -14 L4 -4 L10 -4 L10 4 L4 4 L4 14 L-4 14 L-4 4 L-10 4 L-10 -4 L-4 -4 Z"></path></symbol>
<symbol id="greekCross" viewBox="-10 -10 20 20"><path d="M-3 -10 L3 -10 L3 -3 L10 -3 L10 3 L3 3 L3 10 L-3 10 L-3 3 L-10 3 L-10 -3 L-3 -3 Z"></path></symbol>
</defs>
<g stroke="#101114" stroke-width="2" stroke-linejoin="round">
  <path d="M26 132 L74 132 L68 120 L32 120 Z" fill="url(#granite)"></path>
  <rect x="28" y="60" width="44" height="60" fill="url(#granite)"></rect>
  <rect x="47" y="86" width="6" height="34" fill="#26282c" stroke="none"></rect>
  <rect x="28" y="60" width="8" height="18"></rect><rect x="46" y="60" width="8" height="18"></rect><rect x="64" y="60" width="8" height="18"></rect>
  <use href="#cross" x="42" y="98" width="16" height="18" fill="#8a1f1f" stroke="none"></use>
</g>
</svg>