<svg xmlns="http://www.w3.org/2000/svg" viewBox="0 0 100 140" width="300" height="420">
<defs>
<linearGradient id="marble" x1="0" y1="0" x2="0" y2="1"><stop offset="0" stop-color="#fbf8f1"></stop><stop offset="1" stop-color="#d6cdb8"></stop></linearGradient>
<linearGradient id="gold" x1="0" y1="0" x2="0" y2="1"><stop offset="0" stop-color="#f3d576"></stop><stop offset="1" stop-color="#a9781f"></stop></linearGradient>
<linearGradient id="granite" x1="0" y1="0" x2="0" y2="1"><stop offset="0" stop-color="#5c5f66"></stop><stop offset="1" stop-color="#26282c"></stop></linearGradient>
<linearGradient id="steel" x1="0" y1="0" x2="0" y2="1"><stop offset="0" stop-color="#c9d3db"></stop><stop offset="1" stop-color="#828c98"></stop></linearGradient>
<symbol id="cross" viewBox="-10 -14 20 28"><path d="M-4 -14 L4 -14 L4 -4 L10 -4 L10 4 L4 4 L4 14 L-4 14 L-4 4 L-10 4 L-10 -4 L-4 -4 Z"></path></symbol>
<symbol id="greekCross" viewBox="-10 -10 20 20"><path d="M-3 -10 L3 -10 L3 -3 L10 -3 L10 3 L3 3 L3 10 L-3 10 L-3 3 L-10 3 L-10 -3 L-3 -3 Z"></path></symbol>
</defs>
<g stroke="#7a6a3a" stroke-width="2" stroke-linejoin="round">
  <path d="M28 132 L72 132 L64 118 L36 118 Z" fill="url(#marble)"></path>
  <path d="M36 118 Q30 96 50 82 Q70 96 64 118 Z" fill="url(#marble)"></path>
  <path d="M35 82 Q50 40 50 26 Q50 40 65 82 Q57 74 50 74 Q43 74 35 82 Z" fill="url(#marble)"></path>
  <path d="M50 26 L50 74" stroke="#5b2a6e" stroke-width="3"></path>
  <rect x="30" y="88" width="40" height="5" fill="url(#gold)" stroke="none"></rect>
  <use href="#cross" x="42" y="94" width="16" height="18" fill="url(#gold)" stroke="none"></use>
  <circle cx="50" cy="24" r="4" fill="url(#gold)"></circle>
</g>
</svg>