<svg xmlns="http://www.w3.org/2000/svg" viewBox="0 0 100 140" width="300" height="420">
<defs>
<linearGradient id="marble" x1="0" y1="0" x2="0" y2="1"><stop offset="0" stop-color="#fbf8f1"></stop><stop offset="1" stop-color="#d6cdb8"></stop></linearGradient>
<linearGradient id="gold" x1="0" y1="0" x2="0" y2="1"><stop offset="0" stop-color="#f3d576"></stop><stop offset="1" stop-color="#a9781f"></stop></linearGradient>
<linearGradient id="granite" x1="0" y1="0" x2="0" y2="1"><stop offset="0" stop-color="#5c5f66"></stop><stop offset="1" stop-color="#26282c"></stop></linearGradient>
<linearGradient id="steel" x1="0" y1="0" x2="0" y2="1"><stop offset="0" stop-color="#c9d3db"></stop><stop offset="1" stop-color="#828c98"></stop></linearGradient>
<symbol id="cross" viewBox="-10 -14 20 28"><path d="M-4 -14 L4 -14 L4 -4 L10 -4 L10 4 L4 4 L4 14 L-4 14 L-4 4 L-10 4 L-10 -4 L-4 -4 Z"></path></symbol>
<symbol id="greekCross" viewBox="-10 -10 20 20"><path d="M-3 -10 L3 -10 L3 -3 L10 -3 L10 3 L3 3 L3 10 L-3 10 L-3 3 L-10 3 L-10 -3 L-3 -3 Z"></path></symbol>
</defs>
<g stroke="#7a6a3a" stroke-width="2" stroke-linejoin="round">
  <path d="M22 132 L78 132 L70 116 L30 116 Z" fill="url(#marble)"></path>
  <path d="M30 116 Q26 88 50 62 Q74 88 70 116 Z" fill="url(#marble)"></path>
  <rect x="42" y="72" width="16" height="44" fill="#5b2a6e" stroke="none"></rect>
  <rect x="30" y="86" width="40" height="6" fill="url(#gold)" stroke="none"></rect>
  <rect x="30" y="102" width="40" height="6" fill="url(#gold)" stroke="none"></rect>
  <circle cx="50" cy="70" r="6" fill="url(#gold)"></circle>
  <rect x="30" y="46" width="40" height="16" rx="3" fill="url(#gold)"></rect>
  <circle cx="35" cy="54" r="3" fill="#5b2a6e" stroke="none"></circle><circle cx="50" cy="54" r="3" fill="#5b2a6e" stroke="none"></circle><circle cx="65" cy="54" r="3" fill="#5b2a6e" stroke="none"></circle>
  <circle cx="24" cy="60" r="2.5" fill="url(#gold)"></circle><circle cx="24" cy="70" r="2.5" fill="url(#gold)"></circle><circle cx="24" cy="80" r="2.5" fill="url(#gold)"></circle>
  <circle cx="76" cy="60" r="2.5" fill="url(#gold)"></circle><circle cx="76" cy="70" r="2.5" fill="url(#gold)"></circle><circle cx="76" cy="80" r="2.5" fill="url(#gold)"></circle>
  <use href="#cross" x="42" y="20" width="16" height="20" fill="url(#gold)" stroke="none"></use>
</g>
</svg>