<svg xmlns="http://www.w3.org/2000/svg" viewBox="0 0 100 140" width="300" height="420">
<defs>
<linearGradient id="marble" x1="0" y1="0" x2="0" y2="1"><stop offset="0" stop-color="#fbf8f1"></stop><stop offset="1" stop-color="#d6cdb8"></stop></linearGradient>
<linearGradient id="gold" x1="0" y1="0" x2="0" y2="1"><stop offset="0" stop-color="#f3d576"></stop><stop offset="1" stop-color="#a9781f"></stop></linearGradient>
<linearGradient id="granite" x1="0" y1="0" x2="0" y2="1"><stop offset="0" stop-color="#5c5f66"></stop><stop offset="1" stop-color="#26282c"></stop></linearGradient>
<linearGradient id="steel" x1="0" y1="0" x2="0" y2="1"><stop offset="0" stop-color="#c9d3db"></stop><stop offset="1" stop-color="#828c98"></stop></linearGradient>
<symbol id="cross" viewBox="-10 -14 20 28"><path d="M-4 -14 L4 -14 L4 -4 L10 -4 L10 4 L4 4 L4 14 L-4 14 L-4 4 L-10 4 L-10 -4 L-4 -4 Z"></path></symbol>
<symbol id="greekCross" viewBox="-10 -10 20 20"><path d="M-3 -10 L3 -10 L3 -3 L10 -3 L10 3 L3 3 L3 10 L-3 10 L-3 3 L-10 3 L-10 -3 L-3 -3 Z"></path></symbol>
</defs>
<g stroke="#7a6a3a" stroke-width="2" stroke-linejoin="round">
  <path d="M24 132 L76 132 L68 118 L32 118 Z" fill="url(#marble)"></path>
  <path d="M32 118 Q28 92 50 68 Q72 92 68 118 Z" fill="url(#marble)"></path>
  <path d="M40 118 L40 90 L60 90 L60 118 Z" fill="#5b2a6e" stroke="none"></path>
  <rect x="30" y="100" width="40" height="5" fill="url(#gold)" stroke="none"></rect>
  <rect x="26" y="58" width="48" height="12" rx="3" fill="url(#gold)"></rect>
  <circle cx="30" cy="56" r="3.5" fill="#5b2a6e"></circle><circle cx="42" cy="52" r="3.5" fill="#5b2a6e"></circle><circle cx="58" cy="52" r="3.5" fill="#5b2a6e"></circle><circle cx="70" cy="56" r="3.5" fill="#5b2a6e"></circle>
  <path d="M50 58 L50 42" stroke="url(#gold)" stroke-width="3"></path>
  <circle cx="50" cy="38" r="5" fill="url(#gold)"></circle>
  <circle cx="50" cy="106" r="3" fill="url(#gold)" stroke="none"></circle>
</g>
</svg>