<svg xmlns="http://www.w3.org/2000/svg" viewBox="0 0 100 140" width="300" height="420">
<defs>
<linearGradient id="marble" x1="0" y1="0" x2="0" y2="1"><stop offset="0" stop-color="#fbf8f1"></stop><stop offset="1" stop-color="#d6cdb8"></stop></linearGradient>
<linearGradient id="gold" x1="0" y1="0" x2="0" y2="1"><stop offset="0" stop-color="#f3d576"></stop><stop offset="1" stop-color="#a9781f"></stop></linearGradient>
<linearGradient id="granite" x1="0" y1="0" x2="0" y2="1"><stop offset="0" stop-color="#5c5f66"></stop><stop offset="1" stop-color="#26282c"></stop></linearGradient>
<linearGradient id="steel" x1="0" y1="0" x2="0" y2="1"><stop offset="0" stop-color="#c9d3db"></stop><stop offset="1" stop-color="#828c98"></stop></linearGradient>
<symbol id="cross" viewBox="-10 -14 20 28"><path d="M-4 -14 L4 -14 L4 -4 L10 -4 L10 4 L4 4 L4 14 L-4 14 L-4 4 L-10 4 L-10 -4 L-4 -4 Z"></path></symbol>
<symbol id="greekCross" viewBox="-10 -10 20 20"><path d="M-3 -10 L3 -10 L3 -3 L10 -3 L10 3 L3 3 L3 10 L-3 10 L-3 3 L-10 3 L-10 -3 L-3 -3 Z"></path></symbol>
</defs>
<g stroke="#7a6a3a" stroke-width="2" stroke-linejoin="round">
  <path d="M26 132 L74 132 L68 120 L32 120 Z" fill="url(#marble)"></path>
  <rect x="28" y="80" width="44" height="40" fill="url(#marble)"></rect>
  <path d="M50 88 Q66 88 66 104 L66 118 L34 118 L34 104 Q34 88 50 88 Z" fill="#5b2a6e" stroke="none"></path>
  <use href="#greekCross" x="44" y="94" width="12" height="12" fill="url(#gold)" stroke="none"></use>
  <path d="M28 58 Q26 42 34 37 Q42 42 40 58 Z" fill="url(#marble)"></path>
  <path d="M40 58 Q38 42 50 36 Q62 42 60 58 Z" fill="url(#marble)"></path>
  <path d="M60 58 Q58 42 66 37 Q74 42 72 58 Z" fill="url(#marble)"></path>
  <rect x="27" y="58" width="46" height="22" fill="url(#marble)" stroke="none"></rect>
  <rect x="27" y="58" width="46" height="22" fill="none"></rect>
</g>
</svg>